<svg width="27" height="24" viewBox="0 0 27 24" fill="none" xmlns="http://www.w3.org/2000/svg">
<mask id="mask0_1_1308" style="mask-type:alpha" maskUnits="userSpaceOnUse" x="0" y="0" width="27" height="24">
<rect width="26.6979" height="24" fill="#D9D9D9"/>
</mask>
<g mask="url(#mask0_1_1308)">
<path d="M8.89933 18C8.67685 18 8.47773 17.925 8.30197 17.775C8.12546 17.625 8.03721 17.4417 8.03721 17.225C8.03721 17.025 8.12546 16.846 8.30197 16.688C8.47773 16.5294 8.67685 16.45 8.89933 16.45C9.12182 16.45 9.32131 16.5294 9.49781 16.688C9.67358 16.846 9.76146 17.025 9.76146 17.225C9.76146 17.4417 9.67358 17.625 9.49781 17.775C9.32131 17.925 9.12182 18 8.89933 18ZM8.89933 14.15C8.67685 14.15 8.47773 14.075 8.30197 13.925C8.12546 13.775 8.03721 13.5917 8.03721 13.375C8.03721 13.175 8.12546 13 8.30197 12.85C8.47773 12.7 8.67685 12.625 8.89933 12.625C9.12182 12.625 9.32131 12.7 9.49781 12.85C9.67358 13 9.76146 13.175 9.76146 13.375C9.76146 13.5917 9.67358 13.775 9.49781 13.925C9.32131 14.075 9.12182 14.15 8.89933 14.15ZM13.349 18C13.1265 18 12.9274 17.925 12.7516 17.775C12.5751 17.625 12.4869 17.4417 12.4869 17.225C12.4869 17.025 12.5751 16.846 12.7516 16.688C12.9274 16.5294 13.1265 16.45 13.349 16.45C13.5715 16.45 13.771 16.5294 13.9475 16.688C14.1232 16.846 14.2111 17.025 14.2111 17.225C14.2111 17.4417 14.1232 17.625 13.9475 17.775C13.771 17.925 13.5715 18 13.349 18ZM13.349 14.15C13.1265 14.15 12.9274 14.075 12.7516 13.925C12.5751 13.775 12.4869 13.5917 12.4869 13.375C12.4869 13.175 12.5751 13 12.7516 12.85C12.9274 12.7 13.1265 12.625 13.349 12.625C13.5715 12.625 13.771 12.7 13.9475 12.85C14.1232 13 14.2111 13.175 14.2111 13.375C14.2111 13.5917 14.1232 13.775 13.9475 13.925C13.771 14.075 13.5715 14.15 13.349 14.15ZM17.7987 18C17.5762 18 17.377 17.925 17.2013 17.775C17.0248 17.625 16.9365 17.4417 16.9365 17.225C16.9365 17.025 17.0248 16.846 17.2013 16.688C17.377 16.5294 17.5762 16.45 17.7987 16.45C18.0211 16.45 18.2206 16.5294 18.3971 16.688C18.5729 16.846 18.6608 17.025 18.6608 17.225C18.6608 17.4417 18.5729 17.625 18.3971 17.775C18.2206 17.925 18.0211 18 17.7987 18ZM17.7987 14.15C17.5762 14.15 17.377 14.075 17.2013 13.925C17.0248 13.775 16.9365 13.5917 16.9365 13.375C16.9365 13.175 17.0248 13 17.2013 12.85C17.377 12.7 17.5762 12.625 17.7987 12.625C18.0211 12.625 18.2206 12.7 18.3971 12.85C18.5729 13 18.6608 13.175 18.6608 13.375C18.6608 13.5917 18.5729 13.775 18.3971 13.925C18.2206 14.075 18.0211 14.15 17.7987 14.15ZM6.25735 21C5.73822 21 5.30735 20.846 4.96472 20.538C4.62136 20.2294 4.44968 19.8417 4.44968 19.375V6.62502C4.44968 6.15836 4.62136 5.77102 4.96472 5.46302C5.30735 5.15436 5.73822 5.00002 6.25735 5.00002H8.20408V2.77502H9.39992V5.00002H17.3815V2.77502H18.4939V5.00002H20.4406C20.9598 5.00002 21.391 5.15436 21.7344 5.46302C22.077 5.77102 22.2483 6.15836 22.2483 6.62502V19.375C22.2483 19.8417 22.077 20.2294 21.7344 20.538C21.391 20.846 20.9598 21 20.4406 21H6.25735ZM6.25735 20H20.4406C20.626 20 20.7881 19.9374 20.9268 19.812C21.0662 19.6874 21.1359 19.5417 21.1359 19.375V10.625H5.56209V19.375C5.56209 19.5417 5.6318 19.6874 5.77123 19.812C5.90991 19.9374 6.07195 20 6.25735 20ZM5.56209 9.62502H21.1359V6.62502C21.1359 6.45836 21.0662 6.31269 20.9268 6.18802C20.7881 6.06269 20.626 6.00002 20.4406 6.00002H6.25735C6.07195 6.00002 5.90991 6.06269 5.77123 6.18802C5.6318 6.31269 5.56209 6.45836 5.56209 6.62502V9.62502Z" fill="#860000"/>
</g>
</svg>
